<?xml version="1.0" encoding="utf-8"?>
<!-- Generator: Adobe Illustrator 26.0.1, SVG Export Plug-In . SVG Version: 6.00 Build 0)  -->
<svg version="1.1" id="Layer_3" xmlns="http://www.w3.org/2000/svg" xmlns:xlink="http://www.w3.org/1999/xlink" x="0px" y="0px"
	 viewBox="0 0 130 25" style="enable-background:new 0 0 130 25;" xml:space="preserve">
<style type="text/css">
	.st0{fill:none;stroke:#A6A6A6;stroke-width:0.3;stroke-miterlimit:10;}
</style>
<g>
	<path class="st0" d="M14.6,22.7H2.1c-0.4,0-0.6-0.2-0.6-0.6V2.9c0-0.4,0.2-0.6,0.6-0.6h4.1c0.4,0,0.6,0.2,0.6,0.6v14.8h7.9
		c0.4,0,0.6,0.2,0.6,0.6v3.8C15.2,22.5,15,22.7,14.6,22.7z"/>
	<path class="st0" d="M21,21.7c-1.6-0.9-2.9-2.2-3.8-3.8c-0.9-1.6-1.4-3.4-1.4-5.3s0.5-3.7,1.4-5.3c0.9-1.6,2.2-2.9,3.8-3.8
		c1.6-0.9,3.4-1.4,5.4-1.4c2,0,3.8,0.5,5.4,1.4c1.6,0.9,2.9,2.2,3.8,3.8s1.4,3.4,1.4,5.3c0,1.9-0.5,3.7-1.4,5.3
		c-0.9,1.6-2.2,2.9-3.8,3.9c-1.6,0.9-3.4,1.4-5.4,1.4C24.5,23.1,22.7,22.6,21,21.7z"/>
	<path class="st0" d="M29.1,17.3c0.8-0.5,1.5-1.2,1.9-2c0.5-0.9,0.7-1.8,0.7-2.8c0-1-0.2-2-0.7-2.8c-0.5-0.9-1.1-1.5-2-2
		s-1.7-0.7-2.6-0.7c-0.9,0-1.8,0.2-2.6,0.7s-1.5,1.2-2,2s-0.7,1.8-0.7,2.8c0,1,0.2,2,0.7,2.8s1.1,1.5,2,2c0.8,0.5,1.7,0.7,2.6,0.7
		C27.4,18.1,28.2,17.8,29.1,17.3z"/>
	<path class="st0" d="M56.9,22.3c0,0.1,0,0.2-0.1,0.3c-0.1,0.1-0.2,0.1-0.4,0.1h-4.2c-0.3,0-0.5-0.2-0.7-0.5l-0.9-2.7h-7.3l-0.9,2.7
		c-0.1,0.3-0.3,0.5-0.7,0.5h-4.2c-0.2,0-0.3,0-0.4-0.1c-0.1-0.1-0.1-0.2-0.1-0.3c0-0.1,0-0.2,0-0.2l7.4-19.3
		c0.1-0.3,0.3-0.5,0.7-0.5h3.6c0.3,0,0.6,0.2,0.7,0.5L56.8,22C56.8,22.1,56.9,22.2,56.9,22.3z M49.1,15.2l-1.9-5.7l-0.3-0.9
		l-0.2,0.9l-1.9,5.7H49.1z"/>
	<path class="st0" d="M59.3,22.1V2.9c0-0.4,0.2-0.6,0.6-0.6h7.1c2,0,3.8,0.4,5.4,1.3c1.6,0.9,2.9,2.1,3.9,3.7c1,1.6,1.4,3.3,1.4,5.2
		c0,1.9-0.5,3.6-1.4,5.2c-0.9,1.6-2.2,2.8-3.9,3.7c-1.6,0.9-3.4,1.3-5.4,1.3h-7.1C59.5,22.7,59.3,22.5,59.3,22.1z"/>
	<path class="st0" d="M69.8,17.1c0.8-0.4,1.4-1,1.9-1.8c0.4-0.8,0.7-1.7,0.7-2.7c0-1-0.2-1.9-0.7-2.7C71.3,9,70.6,8.4,69.8,8
		s-1.7-0.7-2.7-0.7h-2.7v10.4h2.7C68.2,17.7,69,17.5,69.8,17.1z"/>
	<path class="st0" d="M85.4,22.7h-4.1c-0.4,0-0.6-0.2-0.6-0.6V2.9c0-0.4,0.2-0.6,0.6-0.6h4.1c0.4,0,0.6,0.2,0.6,0.6v19.2
		C86,22.5,85.8,22.7,85.4,22.7z"/>
	<path class="st0" d="M94.5,22.7h-3.9c-0.4,0-0.6-0.2-0.6-0.6V2.9c0-0.4,0.2-0.6,0.6-0.6h4.5c0.3,0,0.5,0.1,0.7,0.4l7,11.1V2.9
		c0-0.4,0.2-0.6,0.6-0.6h3.9c0.4,0,0.6,0.2,0.6,0.6v19.2c0,0.4-0.2,0.6-0.6,0.6h-4c-0.3,0-0.5-0.1-0.7-0.4l-7.4-11.8v11.6
		C95.1,22.5,94.9,22.7,94.5,22.7z"/>
	<path class="st0" d="M124.1,13.3h3.8c0.4,0,0.6,0.2,0.6,0.6v6.5c0,0.3-0.1,0.5-0.3,0.7c-0.9,0.6-1.9,1.1-3.1,1.5s-2.3,0.5-3.6,0.5
		c-2,0-3.8-0.5-5.4-1.4s-2.9-2.2-3.8-3.8c-0.9-1.6-1.4-3.4-1.4-5.3s0.5-3.7,1.4-5.3c0.9-1.6,2.2-2.9,3.8-3.8
		c1.6-0.9,3.4-1.4,5.4-1.4c1.2,0,2.3,0.2,3.4,0.6s2.1,0.9,3,1.6c0.2,0.1,0.2,0.3,0.2,0.4c0,0.1,0,0.3-0.1,0.4l-2.4,3.1
		c-0.1,0.2-0.3,0.2-0.4,0.2c-0.1,0-0.3,0-0.4-0.1c-0.5-0.3-1-0.6-1.6-0.8c-0.6-0.2-1.2-0.3-1.8-0.3c-0.9,0-1.8,0.2-2.6,0.7
		c-0.8,0.5-1.5,1.2-2,2c-0.5,0.9-0.7,1.8-0.7,2.8c0,1,0.2,2,0.7,2.9c0.5,0.9,1.1,1.6,2,2.1c0.8,0.5,1.7,0.8,2.6,0.8
		c0.8,0,1.5-0.1,2.1-0.3v-4C123.6,13.5,123.8,13.3,124.1,13.3z"/>
</g>
</svg>
