<?xml version="1.0" encoding="utf-8"?>
<!-- Generator: Adobe Illustrator 26.0.1, SVG Export Plug-In . SVG Version: 6.00 Build 0)  -->
<svg version="1.1" id="Layer_5" xmlns="http://www.w3.org/2000/svg" xmlns:xlink="http://www.w3.org/1999/xlink" x="0px" y="0px"
	 viewBox="0 0 1920 1080" style="enable-background:new 0 0 1920 1080;" xml:space="preserve">
<style type="text/css">
	.st0{fill:none;}
	.st1{fill:#EBE6DB;}
	.st2{fill:#EF7610;}
</style>
<polyline class="st0" points="0,24 0,0 24,0 "/>
<g>
	<path class="st1" d="M199.8,804.8c-2.2,7.9-9.9,13.6-18.7,12.5c-7.8-1-14-7.3-14.9-15.1c-1.2-10.4,6.9-19.2,17.1-19.2
		c4.8,0,9.1,2,12.2,5.1l-25,14.4c0.5,3,2.1,5.6,4.3,7.5l32.6-18.8c-1-2.7-2.5-5.3-4.3-7.5c-4.9-6-12.5-9.7-21-9.3
		c-13.1,0.5-23.9,11.1-24.7,24.1c-0.9,15,11,27.5,25.8,27.5c11.1,0,20.5-7,24.2-16.8L199.8,804.8z"/>
	<ellipse transform="matrix(0.7071 -0.7071 0.7071 0.7071 -465.369 393.3271)" class="st2" cx="242.1" cy="758.4" rx="8" ry="8.1"/>
	<path class="st1" d="M242.1,817.4c-10.1,0-18.2-8.8-17.1-19.2c0.8-7.6,6.8-13.8,14.3-15c3.9-0.6,7.7,0.1,10.8,1.8v-9.4
		c-3.6-1.2-7.5-1.6-11.7-1c-11.6,1.6-20.8,11-22.1,22.7c-1.7,15.5,10.5,28.7,25.7,28.7c2.8,0,5.5-0.5,8.1-1.3v-9.4
		C247.8,816.7,245,817.4,242.1,817.4z"/>
	<path class="st1" d="M154.1,774.4c-5.7,0-11.5,1-15.4,6.5v-5.4h-8.6v50.5h8.6v-26.4c0-14.4,8.7-16.6,15.4-16.6V774.4z"/>
	<path class="st1" d="M180.2,878.6c0-0.1-0.1-0.1-0.1-0.2c-1-2.7-2.5-5.3-4.3-7.5c-4.9-6-12.5-9.7-21-9.3
		c-13.1,0.5-23.9,11.1-24.7,24.1c-0.9,15,11,27.5,25.8,27.5c4.5,0,8.8-1.2,12.5-3.2v-10.8c-3.7,3.9-9.1,6.1-15,5.2
		c-7.6-1.1-13.7-7.3-14.6-15c-1.2-10.4,6.9-19.2,17.1-19.2c4.8,0,9.1,2,12.2,5.1c2,2.1,3.5,4.6,4.3,7.5c0.2,0.8,0.4,1.6,0.5,2.4
		c0.1,0.7,0.1,1.4,0.1,2.2h0v25.8h8.6v-25.8C181.8,884.3,181.2,881.3,180.2,878.6z"/>
	<path class="st1" d="M231.8,870.2h18.4v-8.6h-18.4V850h-8.6v38.9v9.3c0,8.2,6.7,14.9,14.9,14.9c0,0,7.7,0,12.1,0v-8.6
		c-3.3,0-11.3,0-11.3,0c-3.9,0-7.1-3.2-7.1-7.1C231.8,893.1,231.8,870.2,231.8,870.2z"/>
	<path class="st1" d="M214.5,861.5c-5.7,0-11.5,1-15.4,6.5v-5.4h-8.6v50.5h8.6v-26.4c0-14.4,8.7-16.6,15.4-16.6V861.5z"/>
</g>
</svg>
