<?xml version="1.0" encoding="utf-8"?>
<!-- Generator: Adobe Illustrator 26.0.1, SVG Export Plug-In . SVG Version: 6.00 Build 0)  -->
<svg version="1.1" id="Layer_5" xmlns="http://www.w3.org/2000/svg" xmlns:xlink="http://www.w3.org/1999/xlink" x="0px" y="0px"
	 viewBox="0 0 1920 1080" style="enable-background:new 0 0 1920 1080;" xml:space="preserve">
<style type="text/css">
	.st0{fill:none;}
	.st1{fill:#EBE6DB;}
	.st2{fill:#EF7610;}
</style>
<polyline class="st0" points="0,24 0,0 24,0 "/>
<g>
	<path class="st1" d="M228.6,809.1c-1.7,6.2-7.8,10.7-14.8,9.8c-6.1-0.8-11.1-5.7-11.8-11.9c-0.9-8.2,5.5-15.1,13.5-15.1
		c3.8,0,7.2,1.6,9.7,4.1l-19.7,11.4c0.4,2.3,1.7,4.4,3.4,5.9l25.7-14.9c-0.8-2.2-2-4.1-3.4-5.9c-3.9-4.7-9.9-7.6-16.5-7.4
		c-10.3,0.4-18.9,8.7-19.5,19.1c-0.7,11.8,8.7,21.7,20.3,21.7c8.8,0,16.2-5.5,19.1-13.3L228.6,809.1z"/>
	
		<ellipse transform="matrix(0.7071 -0.7071 0.7071 0.7071 -469.4673 411.5222)" class="st2" cx="262" cy="772.5" rx="6.3" ry="6.4"/>
	<path class="st1" d="M262,819.1c-8,0-14.4-6.9-13.5-15.1c0.7-6,5.4-10.9,11.3-11.8c3.1-0.5,6.1,0.1,8.5,1.4v-7.4
		c-2.8-0.9-6-1.3-9.2-0.8c-9.2,1.2-16.4,8.7-17.4,17.9c-1.3,12.3,8.3,22.6,20.3,22.6c2.2,0,4.4-0.4,6.4-1v-7.4
		C266.5,818.5,264.3,819.1,262,819.1z"/>
	<path class="st1" d="M192.6,785.1c-4.5,0-9.1,0.8-12.1,5.2V786h-6.8v39.9h6.8V805c0-11.3,6.8-13.1,12.1-13.1V785.1z"/>
	<path class="st1" d="M213.2,867.3c0-0.1,0-0.1-0.1-0.2c-0.8-2.2-2-4.1-3.4-5.9c-3.9-4.7-9.9-7.6-16.5-7.4
		c-10.3,0.4-18.9,8.7-19.5,19.1c-0.7,11.8,8.7,21.7,20.3,21.7c3.6,0,7-0.9,9.9-2.6v-8.5c-2.9,3.1-7.2,4.8-11.9,4.1
		c-6-0.9-10.8-5.8-11.5-11.8c-0.9-8.2,5.5-15.2,13.5-15.2c3.8,0,7.2,1.6,9.7,4.1c1.6,1.6,2.8,3.6,3.4,5.9c0.2,0.6,0.3,1.3,0.4,1.9
		c0.1,0.6,0.1,1.1,0.1,1.7h0v20.4h6.8v-20.4C214.4,871.8,214,869.5,213.2,867.3z"/>
	<path class="st1" d="M253.9,860.7h14.5v-6.8h-14.5v-9.1h-6.8v30.7v7.4c0,6.5,5.3,11.8,11.8,11.8c0,0,6.1,0,9.6,0v-6.8
		c-2.6,0-8.9,0-8.9,0c-3.1,0-5.6-2.5-5.6-5.6C253.9,878.8,253.9,860.7,253.9,860.7z"/>
	<path class="st1" d="M240.2,853.9c-4.5,0-9.1,0.8-12.1,5.2v-4.3h-6.8v39.9h6.8v-20.9c0-11.3,6.8-13.1,12.1-13.1V853.9z"/>
</g>
</svg>
